<svg id="图层_53_复制" data-name="图层 53_复制" xmlns="http://www.w3.org/2000/svg" viewBox="0 0 34 34"><defs><style>.cls-1{fill:#fff;}.cls-2{fill:#97bcc3;}</style></defs><title>形状 11 拷贝</title><rect class="cls-1" x="0.5" y="0.5" width="33" height="33" rx="2.5" ry="2.5"/><path class="cls-1" d="M1232.73,534.62a2,2,0,0,1,2,2v28a2,2,0,0,1-2,2h-28a2,2,0,0,1-2-2v-28a2,2,0,0,1,2-2h28m0-1h-28a3,3,0,0,0-3,3v28a3,3,0,0,0,3,3h28a3,3,0,0,0,3-3v-28a3,3,0,0,0-3-3h0Z" transform="translate(-1201.73 -533.62)"/><g id="_编组_" data-name="&lt;编组&gt;"><path id="_复合路径_" data-name="&lt;复合路径&gt;" class="cls-2" d="M1213.41,558.94l0.19-.93,0.88-.23a6.73,6.73,0,0,0,1.21-.41,2.39,2.39,0,0,0,.45-1.09l0.68-3.15q0.66-3.07,1.22-5.89t0.56-3.21v-0.27a2.37,2.37,0,0,0-.58-0.21,3.34,3.34,0,0,0-.76-0.08,2.36,2.36,0,0,1-.62-0.06l0.19-1.13c0.25,0,.68.05,1.3,0.08l1.63,0.08q0.7,0,1.3,0l1.07,0,1.3-.08,1.07-.08a5.38,5.38,0,0,1-.19,1q-0.33.12-1.11,0.31a7.38,7.38,0,0,0-1.17.37,2,2,0,0,0-.16.45l-0.1.45c0,0.13-.05.29-0.08,0.49s-0.05.35-.08,0.47q-0.29,1.59-1,4.55t-0.84,3.85l-0.35,1.61-0.18.89a3.84,3.84,0,0,0-.08.62l0,0.19q0.18,0.06,2,.35a8,8,0,0,1-.18,1.07l-0.35,0-0.35,0a5.91,5.91,0,0,1-1-.12,5.9,5.9,0,0,0-.93-0.12l-2.24,0c-0.36,0-.88,0-1.54.1l-1.32.12v0Z" transform="translate(-1201.73 -533.62)"/></g></svg>