<svg xmlns="http://www.w3.org/2000/svg" width="34" height="34" viewBox="0 0 34 34">
  <defs>
    <style>
      .cls-1 {
        fill: #ddd;
        fill-rule: evenodd;
      }
    </style>
  </defs>
  <path id="形状_11" data-name="形状 11" class="cls-1" d="M1235.71,522.837l0.18-.95,0.84-.237a6.359,6.359,0,0,0,1.16-.415,2.507,2.507,0,0,0,.42-1.108l0.66-3.2q0.63-3.124,1.17-5.992t0.54-3.263v-0.276a2.179,2.179,0,0,0-.56-0.218,3.032,3.032,0,0,0-.73-0.079,2.118,2.118,0,0,1-.59-0.059l0.18-1.147c0.24,0.026.66,0.053,1.25,0.079l1.57,0.079c0.44,0.027.86,0.033,1.25,0.02q0.5,0,1.02-.02c0.35-.013.76-0.04,1.25-0.079l1.02-.079a5.182,5.182,0,0,1-.18.988c-0.22.08-.57,0.185-1.07,0.317a6.6,6.6,0,0,0-1.11.376,1.515,1.515,0,0,0-.15.454l-0.1.455c-0.02.132-.05,0.3-0.07,0.5s-0.05.356-.07,0.474c-0.19,1.081-.5,2.624-0.92,4.627s-0.69,3.309-.8,3.916l-0.33,1.641-0.17.91a4.4,4.4,0,0,0-.08.632l0.02,0.2q0.165,0.06,1.92.356a7.33,7.33,0,0,1-.17,1.088c-0.07,0-.18.006-0.33,0.02s-0.26.019-.34,0.019a5.3,5.3,0,0,1-.91-0.118,5.3,5.3,0,0,0-.89-0.119c-0.96-.013-1.67-0.02-2.15-0.02q-0.51,0-1.47.1t-1.26.119v0.02Z" transform="translate(-1224.03 -497.36)"/>
</svg>
