<svg xmlns="http://www.w3.org/2000/svg" width="34" height="34" viewBox="0 0 34 34">
  <defs>
    <style>
      .cls-1 {
        fill: #ddd;
        fill-rule: evenodd;
      }
    </style>
  </defs>
  <path id="形状_14" data-name="形状 14" class="cls-1" d="M1233.56,620.343v1.7h-3.74a3.165,3.165,0,0,1-.07-0.574,1.855,1.855,0,0,1,.26-0.994,3.005,3.005,0,0,1,.57-0.727,4.953,4.953,0,0,1,.68-0.517,2.664,2.664,0,0,0,.58-0.459,1.171,1.171,0,0,0,.26-0.478,0.55,0.55,0,0,0-.17-0.421,0.524,0.524,0,0,0-.41-0.134,1.039,1.039,0,0,0-.83.612l-0.87-.631a1.88,1.88,0,0,1,.74-0.842,2.058,2.058,0,0,1,1.09-.306,1.863,1.863,0,0,1,1.26.44,1.486,1.486,0,0,1,.52,1.205,1.547,1.547,0,0,1-.35.976,2.986,2.986,0,0,1-.78.689,6.9,6.9,0,0,0-.78.535,0.9,0.9,0,0,0-.37.574h1.32v-0.65h1.09Zm-0.02,6.7a1.652,1.652,0,0,1-.57,1.339,2.213,2.213,0,0,1-1.39.5,2.341,2.341,0,0,1-1.78-.708l0.58-.937a1.594,1.594,0,0,0,1.11.478,0.918,0.918,0,0,0,.52-0.153,0.538,0.538,0,0,0,.22-0.459c0-.447-0.37-0.644-1.1-0.593l-0.25-.593c0.04-.076.16-0.229,0.33-0.459l0.44-.593a2.81,2.81,0,0,1,.37-0.4v-0.019c-0.11,0-.27.007-0.5,0.019a3.123,3.123,0,0,1-.5,0v0.574h-1.09V623.4h3.44v0.938l-0.98,1.243a1.417,1.417,0,0,1,.84.516A1.471,1.471,0,0,1,1233.54,627.038Zm0.02-12.893v1.071h-3.46v-1.071h1.11v-1.3c0-.586.01-1.014,0.02-1.281v-0.134h-0.02a2.446,2.446,0,0,1-.52.574l-0.74-.8,1.41-1.358h1.09v4.3h1.11Zm14.55-1.32v2.047a0.293,0.293,0,0,1-.1.229,0.379,0.379,0,0,1-.24.115h-12.55a0.316,0.316,0,0,1-.24-0.115,0.37,0.37,0,0,1-.09-0.229v-2.047a0.319,0.319,0,0,1,.33-0.344h12.55a0.346,0.346,0,0,1,.24.1A0.261,0.261,0,0,1,1248.11,612.825Zm0,5.452v2.066a0.293,0.293,0,0,1-.1.229,0.313,0.313,0,0,1-.24.1h-12.55a0.346,0.346,0,0,1-.24-0.1,0.321,0.321,0,0,1-.09-0.229v-2.066a0.325,0.325,0,0,1,.09-0.23,0.349,0.349,0,0,1,.24-0.1h12.55a0.349,0.349,0,0,1,.24.1A0.244,0.244,0,0,1,1248.11,618.277Zm0,5.47v2.047a0.317,0.317,0,0,1-.1.249,0.313,0.313,0,0,1-.24.1h-12.55a0.32,0.32,0,0,1-.33-0.345v-2.047a0.319,0.319,0,0,1,.33-0.344h12.55a0.32,0.32,0,0,1,.24.115A0.266,0.266,0,0,1,1248.11,623.747Z" transform="translate(-1221.92 -602.36)"/>
</svg>
