<svg id="图层_53_复制_3" data-name="图层 53_复制 3" xmlns="http://www.w3.org/2000/svg" viewBox="0 0 34 34"><defs><style>.cls-1{fill:#97bcc3;}.cls-2{fill:#fff;}</style></defs><title>06</title><rect class="cls-1" width="34" height="34" rx="3" ry="3"/><g id="_编组_" data-name="&lt;编组&gt;"><path id="_复合路径_" data-name="&lt;复合路径&gt;" class="cls-2" d="M1213,685.87v1.73h-3.93A3.23,3.23,0,0,1,1209,687a1.9,1.9,0,0,1,.27-1,3.17,3.17,0,0,1,.6-0.74,4.77,4.77,0,0,1,.72-0.53,2.71,2.71,0,0,0,.6-0.47,1.1,1.1,0,0,0,.27-0.49,0.54,0.54,0,0,0-.18-0.43,0.55,0.55,0,0,0-.43-0.14,1.08,1.08,0,0,0-.88.62l-0.91-.64a1.91,1.91,0,0,1,.78-0.86A2.22,2.22,0,0,1,1211,682a2,2,0,0,1,1.32.45,1.5,1.5,0,0,1,.54,1.23,1.52,1.52,0,0,1-.37,1,2.94,2.94,0,0,1-.82.7,6.37,6.37,0,0,0-.82.54,0.87,0.87,0,0,0-.39.58h1.38v-0.66H1213Zm0,6.81a1.65,1.65,0,0,1-.6,1.36,2.34,2.34,0,0,1-1.46.51,2.49,2.49,0,0,1-1.87-.72l0.6-1a1.73,1.73,0,0,0,1.17.49,1,1,0,0,0,.54-0.16,0.52,0.52,0,0,0,.23-0.47q0-.68-1.15-0.6l-0.27-.6,0.35-.47,0.47-.6a2.33,2.33,0,0,1,.39-0.41v0l-0.53,0a3.44,3.44,0,0,1-.52,0v0.58h-1.15V689h3.62v1l-1,1.26a1.49,1.49,0,0,1,.88.52A1.47,1.47,0,0,1,1213,692.67Zm0-13.11v1.09h-3.64v-1.09h1.17v-1.32c0-.6,0-1,0-1.3V676.8h0a2.44,2.44,0,0,1-.54.58l-0.78-.82,1.48-1.38h1.15v4.38H1213Zm15.29-1.34v2.08a0.31,0.31,0,0,1-.1.23,0.42,0.42,0,0,1-.25.12h-13.18a0.31,0.31,0,0,1-.25-0.12,0.36,0.36,0,0,1-.1-0.23v-2.08a0.33,0.33,0,0,1,.35-0.35H1228a0.39,0.39,0,0,1,.25.1A0.26,0.26,0,0,1,1228.31,678.22Zm0,5.54v2.1a0.31,0.31,0,0,1-.1.23,0.34,0.34,0,0,1-.25.1h-13.18a0.34,0.34,0,0,1-.25-0.1,0.31,0.31,0,0,1-.1-0.23v-2.1a0.32,0.32,0,0,1,.1-0.23,0.34,0.34,0,0,1,.25-0.1H1228a0.39,0.39,0,0,1,.25.1A0.24,0.24,0,0,1,1228.31,683.77Zm0,5.56v2.08a0.34,0.34,0,0,1-.1.25,0.34,0.34,0,0,1-.25.1h-13.18a0.34,0.34,0,0,1-.25-0.1,0.34,0.34,0,0,1-.1-0.25v-2.08a0.33,0.33,0,0,1,.35-0.35H1228a0.35,0.35,0,0,1,.25.12A0.26,0.26,0,0,1,1228.31,689.33Z" transform="translate(-1201.73 -667.44)"/></g></svg>