<svg id="step3" xmlns="http://www.w3.org/2000/svg" viewBox="0 0 34 34"><defs><style>.cls-1{fill:#f7f7f7;}.cls-2{fill:#97bcc3;}.cls-3{fill:#6b9aa3;}</style></defs><title>08</title><g id="filled_with" data-name="filled with"><rect class="cls-1" x="0.5" y="0.5" width="33" height="33" rx="2.5" ry="2.5"/><path class="cls-2" d="M1324.09,758.63a2,2,0,0,1,2,2v28a2,2,0,0,1-2,2h-28a2,2,0,0,1-2-2v-28a2,2,0,0,1,2-2h28m0-1h-28a3,3,0,0,0-3,3v28a3,3,0,0,0,3,3h28a3,3,0,0,0,3-3v-28a3,3,0,0,0-3-3h0Z" transform="translate(-1293.09 -757.63)"/><path class="cls-3" d="M1313.44,774a0.73,0.73,0,0,1,0,1.29l-10.18,6.41a0.92,0.92,0,0,1-1,.14,1.08,1.08,0,0,1-.39-1V768.41a1.08,1.08,0,0,1,.39-1,0.92,0.92,0,0,1,1,.14Zm3.21-7.54q2.08,0,2.08,1.63v13.11q0,1.63-2.11,1.63t-2.11-1.63V768.07Q1314.51,766.44,1316.64,766.44Z" transform="translate(-1293.09 -757.63)"/></g></svg>