<svg id="图层_53_复制_3" data-name="图层 53_复制 3" xmlns="http://www.w3.org/2000/svg" viewBox="0 0 34 34"><defs><style>.cls-1{fill:#97bcc3;}.cls-2{fill:#fff;}</style></defs><title>08</title><rect class="cls-1" width="34" height="34" rx="3" ry="3"/><path class="cls-2" d="M1222.31,774a0.73,0.73,0,0,1,0,1.29l-10.18,6.41a0.92,0.92,0,0,1-1,.14,1.08,1.08,0,0,1-.39-1V768.41a1.08,1.08,0,0,1,.39-1,0.92,0.92,0,0,1,1,.14Zm3.21-7.54q2.08,0,2.08,1.63v13.11q0,1.63-2.11,1.63t-2.11-1.63V768.07Q1223.38,766.44,1225.52,766.44Z" transform="translate(-1201.73 -757.63)"/></svg>