<svg id="图层_53_复制_3" data-name="图层 53_复制 3" xmlns="http://www.w3.org/2000/svg" viewBox="0 0 34 34"><defs><style>.cls-1{fill:#97bcc3;}.cls-2{fill:#fff;}</style></defs><title>04</title><rect class="cls-1" width="34" height="34" rx="3" ry="3"/><g id="_编组_" data-name="&lt;编组&gt;"><path id="_复合路径_" data-name="&lt;复合路径&gt;" class="cls-2" d="M1227.5,603.44l-1.44,0-1.44,0-1.44,0-1.44,0a0.44,0.44,0,0,1-.41-0.23,1,1,0,0,1-.14-0.49,0.68,0.68,0,0,1,.18-0.51,0.58,0.58,0,0,1,.43-0.18,2.36,2.36,0,0,0,.56-0.08,2,2,0,0,0,.49-0.17,2,2,0,0,0,.35-1.52V596a2.08,2.08,0,0,0,0-.33,1.64,1.64,0,0,0-.54-0.06h-7.31a1.72,1.72,0,0,0-.56.06l0,4.36q0,1.54.41,1.79a1.41,1.41,0,0,0,.51.14,5.39,5.39,0,0,0,.62,0,0.75,0.75,0,0,1,.49.16,0.66,0.66,0,0,1,.21.51,1,1,0,0,1-.14.51,0.47,0.47,0,0,1-.39.25l-1.52,0-1.49,0-1.39,0-1.38,0a0.43,0.43,0,0,1-.39-0.23,1,1,0,0,1-.14-0.49,0.62,0.62,0,0,1,.17-0.49,0.79,0.79,0,0,1,.39-0.19l0.51-.08a1,1,0,0,0,.47-0.17,2.11,2.11,0,0,0,.35-1.56l0-.6V590.8l0-.27a2.11,2.11,0,0,0,0-.41,3.71,3.71,0,0,1,0-.41,2.8,2.8,0,0,0,0-.47c0-.16-0.05-0.29-0.08-0.39a3,3,0,0,0-.12-0.35,0.24,0.24,0,0,0-.18-0.19,1.07,1.07,0,0,0-.49-0.12l-0.56,0a1.12,1.12,0,0,1-.45-0.14,0.49,0.49,0,0,1-.19-0.51A1.12,1.12,0,0,1,1210,587a0.44,0.44,0,0,1,.39-0.25l1.52,0,1.48,0,1.4,0,1.36,0a0.44,0.44,0,0,1,.41.25,1.06,1.06,0,0,1,.14.51,0.57,0.57,0,0,1-.6.64,4.15,4.15,0,0,0-.54,0,1.34,1.34,0,0,0-.47.14,2.38,2.38,0,0,0-.37,1.75l0,3.81a1.68,1.68,0,0,0,.43,0h7.58a1.59,1.59,0,0,0,.41,0,2.51,2.51,0,0,0,0-.35v-3.46a2.37,2.37,0,0,0-.37-1.75,1.44,1.44,0,0,0-.64-0.14,2.09,2.09,0,0,1-.72-0.14,0.53,0.53,0,0,1-.27-0.54,1,1,0,0,1,.14-0.51,0.49,0.49,0,0,1,.41-0.25l1.44,0,1.43,0,1.39,0,1.4,0a0.44,0.44,0,0,1,.41.25,1.06,1.06,0,0,1,.14.51,0.58,0.58,0,0,1-.19.49,0.67,0.67,0,0,1-.43.16,5,5,0,0,0-.56,0,1,1,0,0,0-.47.14,2.32,2.32,0,0,0-.39,1.75l0,10.23a1.91,1.91,0,0,0,.37,1.52,1,1,0,0,0,.49.14l0.58,0.06a0.93,0.93,0,0,1,.45.17,0.6,0.6,0,0,1,.19.47,1.16,1.16,0,0,1-.12.53A0.44,0.44,0,0,1,1227.5,603.44Z" transform="translate(-1201.73 -578.12)"/></g></svg>