<svg xmlns="http://www.w3.org/2000/svg" width="34" height="34" viewBox="0 0 34 34">
  <defs>
    <style>
      .cls-1 {
        fill: #ddd;
        fill-rule: evenodd;
      }
    </style>
  </defs>
  <path id="形状_12" data-name="形状 12" class="cls-1" d="M1247.83,558.856c-0.31,0-.78-0.013-1.39-0.039s-1.07-.04-1.38-0.04-0.77.013-1.38,0.04-1.07.039-1.38,0.039a0.43,0.43,0,0,1-.4-0.237,1.093,1.093,0,0,1-.13-0.494,0.732,0.732,0,0,1,.17-0.515,0.544,0.544,0,0,1,.41-0.178,2.068,2.068,0,0,0,.54-0.079,1.818,1.818,0,0,0,.47-0.178,2.033,2.033,0,0,0,.34-1.542v-4.311a2.347,2.347,0,0,0-.02-0.336,1.5,1.5,0,0,0-.52-0.059h-7.03a1.6,1.6,0,0,0-.54.059l-0.02,4.43a2.47,2.47,0,0,0,.39,1.819,1.308,1.308,0,0,0,.49.138,4.9,4.9,0,0,0,.6.04,0.68,0.68,0,0,1,.46.158,0.662,0.662,0,0,1,.21.514,1.132,1.132,0,0,1-.13.514,0.456,0.456,0,0,1-.38.257c-0.32,0-.81-0.013-1.45-0.039s-1.13-.04-1.43-0.04-0.75.013-1.34,0.04-1.03.039-1.33,0.039a0.408,0.408,0,0,1-.37-0.237,0.979,0.979,0,0,1-.13-0.494,0.66,0.66,0,0,1,.17-0.5,0.723,0.723,0,0,1,.37-0.2c0.14-.026.3-0.052,0.49-0.079a0.939,0.939,0,0,0,.45-0.178,2.271,2.271,0,0,0,.33-1.582l-0.02-.612V546l0.02-.277a1.435,1.435,0,0,0,0-.415c-0.01-.119-0.02-0.257-0.02-0.415a3.775,3.775,0,0,0-.03-0.475c-0.03-.158-0.05-0.29-0.08-0.4a2.221,2.221,0,0,0-.11-0.355,0.245,0.245,0,0,0-.17-0.2,0.972,0.972,0,0,0-.47-0.119l-0.54-.039a1.045,1.045,0,0,1-.43-0.139,0.513,0.513,0,0,1-.18-0.514,1.116,1.116,0,0,1,.11-0.514,0.417,0.417,0,0,1,.37-0.257c0.33,0,.81.013,1.46,0.039s1.12,0.04,1.42.04,0.75-.013,1.35-0.04,1.03-.039,1.3-0.039a0.4,0.4,0,0,1,.39.257,1.108,1.108,0,0,1,.14.514,0.657,0.657,0,0,1-.17.494,0.59,0.59,0,0,1-.41.159,3.849,3.849,0,0,0-.53.039,1.348,1.348,0,0,0-.45.139,2.564,2.564,0,0,0-.35,1.779l0.02,3.876a1.505,1.505,0,0,0,.41.04h7.29a1.438,1.438,0,0,0,.39-0.04,2.863,2.863,0,0,0,.02-0.356v-3.52a2.49,2.49,0,0,0-.36-1.779,1.3,1.3,0,0,0-.61-0.139,1.969,1.969,0,0,1-.7-0.138,0.549,0.549,0,0,1-.26-0.554,1.132,1.132,0,0,1,.13-0.514,0.474,0.474,0,0,1,.4-0.257q0.45,0,1.38.039c0.62,0.027,1.08.04,1.37,0.04s0.74-.013,1.34-0.04,1.04-.039,1.34-0.039a0.427,0.427,0,0,1,.4.257,1.225,1.225,0,0,1,.13.514,0.6,0.6,0,0,1-.6.653,4.492,4.492,0,0,0-.54.039,0.961,0.961,0,0,0-.45.139,2.451,2.451,0,0,0-.38,1.779l0.02,10.4a2.009,2.009,0,0,0,.36,1.543,0.9,0.9,0,0,0,.46.138q0.3,0.019.57,0.06a0.905,0.905,0,0,1,.43.178,0.627,0.627,0,0,1,.18.474,1.306,1.306,0,0,1-.11.534A0.417,0.417,0,0,1,1247.83,558.856Z" transform="translate(-1222.625 -533.36)"/>
</svg>
