<svg id="图层_53_复制" data-name="图层 53_复制" xmlns="http://www.w3.org/2000/svg" viewBox="0 0 34 34"><defs><style>.cls-1{fill:#fff;}.cls-2{fill:#97bcc3;}</style></defs><title>形状 13 拷贝</title><rect class="cls-1" x="0.5" y="0.5" width="33" height="33" rx="2.5" ry="2.5"/><path class="cls-1" d="M1232.73,624.08a2,2,0,0,1,2,2v28a2,2,0,0,1-2,2h-28a2,2,0,0,1-2-2v-28a2,2,0,0,1,2-2h28m0-1h-28a3,3,0,0,0-3,3v28a3,3,0,0,0,3,3h28a3,3,0,0,0,3-3v-28a3,3,0,0,0-3-3h0Z" transform="translate(-1201.73 -623.08)"/><g id="_编组_" data-name="&lt;编组&gt;"><path id="_复合路径_" data-name="&lt;复合路径&gt;" class="cls-2" d="M1212.89,634.52a2.06,2.06,0,1,1-.6-1.48A2,2,0,0,1,1212.89,634.52Zm0,5.56a2.06,2.06,0,1,1-.6-1.48A2,2,0,0,1,1212.89,640.08Zm0,5.56a2.05,2.05,0,0,1-.6,1.48,1.92,1.92,0,0,1-1.48.6,2.11,2.11,0,0,1-1.48-.6,2.11,2.11,0,0,1,0-3,2.12,2.12,0,0,1,1.48-.6,1.91,1.91,0,0,1,1.48.6A2.05,2.05,0,0,1,1212.89,645.64Zm15.29-12.15v2.08a0.31,0.31,0,0,1-.1.23,0.42,0.42,0,0,1-.25.12h-13.18a0.31,0.31,0,0,1-.25-0.12,0.36,0.36,0,0,1-.1-0.23v-2.08a0.33,0.33,0,0,1,.35-0.35h13.18a0.39,0.39,0,0,1,.25.1A0.26,0.26,0,0,1,1228.18,633.49Zm0,5.54v2.1a0.31,0.31,0,0,1-.1.23,0.34,0.34,0,0,1-.25.1h-13.18a0.34,0.34,0,0,1-.25-0.1,0.31,0.31,0,0,1-.1-0.23V639a0.32,0.32,0,0,1,.1-0.23,0.34,0.34,0,0,1,.25-0.1h13.18a0.39,0.39,0,0,1,.25.1A0.24,0.24,0,0,1,1228.18,639Zm0,5.56v2.08a0.38,0.38,0,0,1-.1.25,0.27,0.27,0,0,1-.25.1h-13.18a0.34,0.34,0,0,1-.25-0.1,0.34,0.34,0,0,1-.1-0.25v-2.08a0.32,0.32,0,0,1,.1-0.23,0.42,0.42,0,0,1,.25-0.12h13.18a0.35,0.35,0,0,1,.25.12A0.26,0.26,0,0,1,1228.18,644.59Z" transform="translate(-1201.73 -623.08)"/></g></svg>