<svg xmlns="http://www.w3.org/2000/svg" width="34" height="34" viewBox="0 0 34 34">
  <defs>
    <style>
      .cls-1 {
        fill: #ddd;
        fill-rule: evenodd;
      }
    </style>
  </defs>
  <path id="形状_9" data-name="形状 9" class="cls-1" d="M1247.86,433.323h-2.01l-2.5-3.136-4.31,3.136h-3.63a2.4,2.4,0,0,0-1.81.815,2.7,2.7,0,0,0-.77,1.9v3.345l-2.17-6.188a0.822,0.822,0,0,1,.44-1.087l13.7-5.184a0.74,0.74,0,0,1,1,.5ZM1250,435.2a0.7,0.7,0,0,1,.54.251,0.843,0.843,0,0,1,.22.585v9.867a0.845,0.845,0,0,1-.22.585,0.7,0.7,0,0,1-.54.251h-14.59a0.687,0.687,0,0,1-.54-0.251,0.845,0.845,0,0,1-.22-0.585V436.04a0.843,0.843,0,0,1,.22-0.585,0.687,0.687,0,0,1,.54-0.251H1250Zm-1.13,9.448v-3.386l-1.45-3.344-3.35,1.254-2.62,2.759-2.78-3.554-1.85,4.474v1.8h12.05Z" transform="translate(-1223.69 -419.813)"/>
</svg>
