<svg id="图层_53_复制_2" data-name="图层 53_复制 2" xmlns="http://www.w3.org/2000/svg" viewBox="0 0 34 34"><defs><style>.cls-1{fill:#f7f7f7;}.cls-2{fill:#97bcc3;}.cls-3{fill:#6b9aa3;}</style></defs><title>01</title><rect class="cls-1" x="0.5" y="0.5" width="33" height="33" rx="2.5" ry="2.5"/><path class="cls-2" d="M1232.73,444.94a2,2,0,0,1,2,2v28a2,2,0,0,1-2,2h-28a2,2,0,0,1-2-2v-28a2,2,0,0,1,2-2h28m0-1h-28a3,3,0,0,0-3,3v28a3,3,0,0,0,3,3h28a3,3,0,0,0,3-3v-28a3,3,0,0,0-3-3h0Z" transform="translate(-1201.73 -443.94)"/><g id="_编组_" data-name="&lt;编组&gt;"><path class="cls-3" d="M1225.91,456.44h-2l-2.54-3.07-4.38,3.07h-3.68a2.49,2.49,0,0,0-1.84.8,2.58,2.58,0,0,0-.78,1.86v3.27l-2.21-6.05a0.8,0.8,0,0,1,.45-1.06l13.9-5.07a0.77,0.77,0,0,1,1,.49Zm2.17,1.84a0.72,0.72,0,0,1,.55.25,0.82,0.82,0,0,1,.22.57v9.65a0.82,0.82,0,0,1-.22.57,0.72,0.72,0,0,1-.55.25h-14.8a0.72,0.72,0,0,1-.55-0.25,0.82,0.82,0,0,1-.23-0.57V459.1a0.82,0.82,0,0,1,.23-0.57,0.72,0.72,0,0,1,.55-0.25h14.8Zm-1.15,9.24v-3.31l-1.47-3.27-3.39,1.23-2.66,2.7-2.82-3.48-1.88,4.38v1.76h12.23Z" transform="translate(-1201.73 -443.94)"/></g></svg>