<svg xmlns="http://www.w3.org/2000/svg" width="34" height="34" viewBox="0 0 34 34">
  <defs>
    <style>
      .cls-1 {
        fill: #ddd;
        fill-rule: evenodd;
      }
    </style>
  </defs>
  <path id="形状_13" data-name="形状 13" class="cls-1" d="M1235.3,581.9a2.015,2.015,0,0,1-.57,1.452,1.872,1.872,0,0,1-1.4.592,1.85,1.85,0,0,1-1.39-.592,2.136,2.136,0,0,1,0-2.9,1.851,1.851,0,0,1,1.39-.593,1.873,1.873,0,0,1,1.4.593A2.016,2.016,0,0,1,1235.3,581.9Zm0,5.465a2.016,2.016,0,0,1-.57,1.453,1.872,1.872,0,0,1-1.4.592,1.85,1.85,0,0,1-1.39-.592,2.136,2.136,0,0,1,0-2.9,1.851,1.851,0,0,1,1.39-.593,1.873,1.873,0,0,1,1.4.593A2.015,2.015,0,0,1,1235.3,587.36Zm0,5.466a2.059,2.059,0,0,1-.57,1.453,1.782,1.782,0,0,1-1.4.592,1.946,1.946,0,0,1-1.39-.592,2.136,2.136,0,0,1,0-2.9,1.951,1.951,0,0,1,1.39-.593,1.786,1.786,0,0,1,1.4.593A2.059,2.059,0,0,1,1235.3,592.826Zm14.44-11.944v2.044a0.323,0.323,0,0,1-.09.23,0.384,0.384,0,0,1-.24.115h-12.46a0.291,0.291,0,0,1-.24-0.115,0.373,0.373,0,0,1-.09-0.23v-2.044a0.349,0.349,0,0,1,.09-0.249,0.313,0.313,0,0,1,.24-0.1h12.46a0.384,0.384,0,0,1,.24.1A0.281,0.281,0,0,1,1249.74,580.882Zm0,5.446v2.064a0.323,0.323,0,0,1-.09.23,0.313,0.313,0,0,1-.24.1h-12.46a0.313,0.313,0,0,1-.24-0.1,0.323,0.323,0,0,1-.09-0.23v-2.064a0.323,0.323,0,0,1,.09-0.229,0.313,0.313,0,0,1,.24-0.1h12.46a0.384,0.384,0,0,1,.24.1A0.257,0.257,0,0,1,1249.74,586.328Zm0,5.466v2.045a0.4,0.4,0,0,1-.09.249,0.246,0.246,0,0,1-.24.1h-12.46a0.316,0.316,0,0,1-.24-0.1,0.348,0.348,0,0,1-.09-0.249v-2.045a0.323,0.323,0,0,1,.09-0.229,0.378,0.378,0,0,1,.24-0.114h12.46a0.353,0.353,0,0,1,.24.114A0.284,0.284,0,0,1,1249.74,591.794Z" transform="translate(-1223.565 -570.36)"/>
</svg>
