<svg id="图层_53_复制_3" data-name="图层 53_复制 3" xmlns="http://www.w3.org/2000/svg" viewBox="0 0 34 34"><defs><style>.cls-1{fill:#97bcc3;}.cls-2{fill:#fff;}</style></defs><title>07</title><rect class="cls-1" width="34" height="34" rx="3" ry="3"/><path class="cls-2" d="M1210.72,724q0-1.63,2.11-1.63t2.11,1.63v13.11q0,1.63-2.11,1.63t-2.11-1.63V724Zm4.89,6.58a0.82,0.82,0,0,1,.39-0.67l10.24-6.41a0.82,0.82,0,0,1,1-.14,1.08,1.08,0,0,1,.39,1v12.43a1.08,1.08,0,0,1-.39,1,0.82,0.82,0,0,1-1-.14L1216,731.18A0.78,0.78,0,0,1,1215.62,730.56Z" transform="translate(-1201.73 -713.54)"/></svg>