<svg xmlns="http://www.w3.org/2000/svg" width="34" height="34" viewBox="0 0 34 34">
  <defs>
    <style>
      .cls-1 {
        fill: #ddd;
        fill-rule: evenodd;
      }
    </style>
  </defs>
  <path id="形状_16" data-name="形状 16" class="cls-1" d="M1242.17,686.106a0.71,0.71,0,0,1,0,1.268l-9.89,6.284a0.893,0.893,0,0,1-.99.137,1.077,1.077,0,0,1-.38-0.964V680.649a1.08,1.08,0,0,1,.38-0.965,0.9,0.9,0,0,1,.99.138Zm3.12-7.386c1.35,0,2.02.533,2.02,1.6v12.843c0,1.066-.68,1.6-2.05,1.6s-2.05-.533-2.05-1.6V680.318C1243.21,679.253,1243.91,678.72,1245.29,678.72Z" transform="translate(-1222.11 -669.735)"/>
</svg>
