<svg xmlns="http://www.w3.org/2000/svg" width="34" height="34" viewBox="0 0 34 34">
  <defs>
    <style>
      .cls-1 {
        fill: #ddd;
        fill-rule: evenodd;
      }
    </style>
  </defs>
  <path id="形状_10" data-name="形状 10" class="cls-1" d="M1233.49,486.838l0.02-1.049c0.11-.026.41-0.086,0.89-0.178a5.719,5.719,0,0,0,1.09-.3,2.358,2.358,0,0,0,.12-0.3,1.309,1.309,0,0,0,.08-0.376,1.461,1.461,0,0,1,.07-0.356,0.888,0.888,0,0,0,.02-0.416,1.12,1.12,0,0,1,0-.376V482.78q0-10.846-.22-11.322a0.339,0.339,0,0,0-.22-0.159c-0.13-.039-0.28-0.079-0.46-0.118a4.359,4.359,0,0,0-.52-0.08c-0.16-.013-0.33-0.033-0.5-0.059s-0.27-.04-0.31-0.04l-0.04-.91q1.02-.019,3.51-0.119c1.66-.066,2.94-0.1,3.83-0.1h1.41a7,7,0,0,1,1.4.139,5.061,5.061,0,0,1,1.33.475,4.984,4.984,0,0,1,1.11.772,3.237,3.237,0,0,1,.75,1.168,3.93,3.93,0,0,1,.3,1.5,3.359,3.359,0,0,1-.17,1.069,2.755,2.755,0,0,1-.4.792,4.439,4.439,0,0,1-.67.633,3.727,3.727,0,0,1-.76.5c-0.22.106-.51,0.251-0.86,0.436a5.462,5.462,0,0,1,2.65,1.484,3.692,3.692,0,0,1,1.06,2.752,5.241,5.241,0,0,1-.37,1.979,4.2,4.2,0,0,1-.96,1.445,5.315,5.315,0,0,1-1.42.93,7.523,7.523,0,0,1-1.68.535,9.955,9.955,0,0,1-1.81.158c-0.31,0-.76-0.013-1.37-0.039s-1.05-.033-1.36-0.02c-0.73,0-1.78.04-3.16,0.119Zm5.58-9.838a6.259,6.259,0,0,0,1.12.079,6.964,6.964,0,0,0,1.48-.138,2.988,2.988,0,0,0,1.12-.495,2.143,2.143,0,0,0,.76-0.99,4.611,4.611,0,0,0,.28-1.564,2.87,2.87,0,0,0-.3-1.346,2.293,2.293,0,0,0-.83-0.91,3.783,3.783,0,0,0-1.11-.475,6.1,6.1,0,0,0-1.27-.159,8.772,8.772,0,0,0-1.35.139q0,0.553.06,1.663c0.04,0.739.05,1.3,0.04,1.682v0.891c0,0.4-.01.686-0.02,0.871A7.321,7.321,0,0,0,1239.07,477Zm0.14,8.255a3.43,3.43,0,0,0,1.44.356q3.885,0,3.88-3.7a3.914,3.914,0,0,0-.43-2,3.441,3.441,0,0,0-.64-0.812,4.022,4.022,0,0,0-.69-0.514,2.6,2.6,0,0,0-.83-0.277,6.653,6.653,0,0,0-.86-0.119c-0.24-.013-0.56-0.02-0.98-0.02a3.058,3.058,0,0,0-1.03.119v1.742c0,0.779-.01,1.366-0.02,1.762v1.8q0,0.416.03,0.93A2.78,2.78,0,0,0,1239.21,485.255Z" transform="translate(-1223.75 -461.36)"/>
</svg>
