<svg id="图层_53_复制" data-name="图层 53_复制" xmlns="http://www.w3.org/2000/svg" viewBox="0 0 34 34"><defs><style>.cls-1{fill:#fff;}.cls-2{fill:#97bcc3;}</style></defs><title>形状 10 拷贝</title><rect class="cls-1" x="0.5" y="0.5" width="33" height="33" rx="2.5" ry="2.5"/><path class="cls-1" d="M1232.73,488.92a2,2,0,0,1,2,2v28a2,2,0,0,1-2,2h-28a2,2,0,0,1-2-2v-28a2,2,0,0,1,2-2h28m0-1h-28a3,3,0,0,0-3,3v28a3,3,0,0,0,3,3h28a3,3,0,0,0,3-3v-28a3,3,0,0,0-3-3h0Z" transform="translate(-1201.73 -487.92)"/><g id="_编组_" data-name="&lt;编组&gt;"><path id="_复合路径_" data-name="&lt;复合路径&gt;" class="cls-2" d="M1212,513.07l0-1,0.93-.18a6.3,6.3,0,0,0,1.15-.29,2.13,2.13,0,0,0,.14-0.29,1.41,1.41,0,0,0,.08-0.37,1.21,1.21,0,0,1,.08-0.35,0.8,0.8,0,0,0,0-.41,0.83,0.83,0,0,1,0-.37v-0.7q0-10.66-.23-11.12a0.34,0.34,0,0,0-.23-0.16l-0.49-.12a4.57,4.57,0,0,0-.54-0.08l-0.53-.06-0.33,0,0-.89,3.7-.12q2.63-.1,4-0.1h1.48a8,8,0,0,1,1.48.14,5.56,5.56,0,0,1,1.4.47,5.19,5.19,0,0,1,1.17.76,3.18,3.18,0,0,1,.8,1.15,3.69,3.69,0,0,1,.31,1.48,3.07,3.07,0,0,1-.18,1.05,2.45,2.45,0,0,1-.43.78,5.22,5.22,0,0,1-1.5,1.11l-0.91.43a5.93,5.93,0,0,1,2.8,1.46,3.5,3.5,0,0,1,1.11,2.7,4.75,4.75,0,0,1-.39,1.94,4,4,0,0,1-1,1.42,5.52,5.52,0,0,1-1.5.91,8.16,8.16,0,0,1-1.77.52,11.11,11.11,0,0,1-1.9.16l-1.44,0c-0.64,0-1.12,0-1.44,0q-1.15,0-3.33.12Zm5.87-9.67a7.21,7.21,0,0,0,1.19.08,7.79,7.79,0,0,0,1.56-.14,3.31,3.31,0,0,0,1.19-.49,2.19,2.19,0,0,0,.8-1,4.06,4.06,0,0,0,.29-1.54,2.7,2.7,0,0,0-.31-1.32,2.33,2.33,0,0,0-.88-0.89,4.1,4.1,0,0,0-1.17-.47,7,7,0,0,0-1.34-.16,9.67,9.67,0,0,0-1.42.14q0,0.54.06,1.63t0,1.65v0.88c0,0.39,0,.67,0,0.86C1217.88,503,1217.88,503.25,1217.9,503.4Zm0.16,8.11a3.78,3.78,0,0,0,1.52.35q4.08,0,4.08-3.64a3.7,3.7,0,0,0-.45-2,3.39,3.39,0,0,0-.68-0.8,4.08,4.08,0,0,0-.72-0.51,3.06,3.06,0,0,0-.88-0.27,7.74,7.74,0,0,0-.91-0.12l-1,0a3.49,3.49,0,0,0-1.09.12v1.71q0,1.15,0,1.73v1.77q0,0.41,0,.91A2.28,2.28,0,0,0,1218.05,511.51Z" transform="translate(-1201.73 -487.92)"/></g></svg>