<svg xmlns="http://www.w3.org/2000/svg" width="34" height="34" viewBox="0 0 34 34">
  <defs>
    <style>
      .cls-1 {
        fill: #ddd;
        fill-rule: evenodd;
      }
    </style>
  </defs>
  <path id="形状_15" data-name="形状 15" class="cls-1" d="M1231.88,645.352c0-1.065.68-1.6,2.05-1.6s2.05,0.533,2.05,1.6V658.2c0,1.066-.68,1.6-2.05,1.6s-2.05-.533-2.05-1.6V645.352Zm4.76,6.449a0.787,0.787,0,0,1,.38-0.661l9.95-6.284a0.8,0.8,0,0,1,.93-0.138,1.08,1.08,0,0,1,.38.965v12.182a1.077,1.077,0,0,1-.38.964,0.794,0.794,0,0,1-.93-0.138l-9.95-6.283A0.749,0.749,0,0,1,1236.64,651.8Z" transform="translate(-1223.08 -634.765)"/>
</svg>
